<?xml version="1.0" encoding="utf-8"?>
<!-- Generator: Adobe Illustrator 16.0.3, SVG Export Plug-In . SVG Version: 6.00 Build 0)  -->
<!DOCTYPE svg PUBLIC "-//W3C//DTD SVG 1.1//EN" "http://www.w3.org/Graphics/SVG/1.1/DTD/svg11.dtd">
<svg version="1.1" id="Layer_1" xmlns="http://www.w3.org/2000/svg" xmlns:xlink="http://www.w3.org/1999/xlink" x="0px" y="0px"
	 width="1000px" height="1000px" viewBox="0 0 1000 1000" enable-background="new 0 0 1000 1000" xml:space="preserve">
<path fill="#2980B9" d="M951.144,1000v-97.549L1000,853.595v97.549L951.144,1000z M0,48.856L48.856,0h97.549L97.549,48.856H0z"/>
<text transform="matrix(0.7071 0.7071 -0.7071 0.7071 13939.916 46225.9062)" fill="#FFFFFF" font-family="'Lato-Regular'" font-size="158.511">POPULAR</text>
<g>
	<path fill="#3498DB" d="M526.211,215.415c-5.019-5.018-10.349-8.689-15.988-11.012c-5.642-2.322-11.422-3.334-17.34-3.031
		c-5.919,0.303-11.874,1.93-17.861,4.879c-5.989,2.951-11.794,7.237-17.416,12.858c-5.623,5.622-9.897,11.417-12.825,17.382
		c-2.927,5.966-4.53,11.896-4.81,17.793c-0.281,5.895,0.754,11.676,3.101,17.338c2.345,5.665,6.005,10.982,10.977,15.954
		c5.017,5.017,10.346,8.688,15.988,11.012c5.64,2.323,11.396,3.334,17.27,3.032c5.873-0.304,11.768-1.941,17.688-4.914
		c5.919-2.973,11.69-7.271,17.312-12.894c5.621-5.621,9.93-11.403,12.928-17.347c2.994-5.942,4.656-11.861,4.982-17.758
		c0.324-5.896-0.674-11.664-2.996-17.305C534.898,225.763,531.228,220.433,526.211,215.415z"/>
	<path fill="#3498DB" d="M419.074,154.13c3.015-1.312,5.811-3.256,8.39-5.834c5.202-5.203,7.491-10.898,6.871-17.092
		c-0.623-6.191-4.454-12.809-11.498-19.853l-12.153-12.153l-33.974,33.975l11.877,11.877c3.59,3.59,7.169,6.271,10.737,8.045
		c3.567,1.771,6.997,2.716,10.289,2.831C412.905,156.04,416.057,155.442,419.074,154.13z"/>
	<path fill="#3498DB" d="M648.276,379.507c2.995-5.943,4.657-11.862,4.983-17.758c0.324-5.896-0.676-11.665-2.997-17.305
		c-2.323-5.642-5.995-10.972-11.012-15.988c-5.019-5.019-10.349-8.689-15.988-11.012c-5.642-2.324-11.422-3.334-17.34-3.031
		c-5.919,0.303-11.873,1.93-17.86,4.879c-5.99,2.951-11.795,7.236-17.416,12.857c-5.623,5.623-9.897,11.418-12.824,17.383
		c-2.928,5.965-4.531,11.896-4.811,17.791c-0.281,5.896,0.754,11.676,3.102,17.34c2.345,5.664,6.005,10.982,10.977,15.953
		c5.018,5.018,10.346,8.689,15.988,11.012c5.639,2.323,11.396,3.334,17.27,3.032c5.873-0.304,11.769-1.94,17.688-4.913
		c5.919-2.974,11.69-7.271,17.313-12.895C640.971,391.231,645.279,385.45,648.276,379.507z"/>
	<path fill="#3498DB" d="M426.961,0H48.856L1000,951.307V573.202L426.961,0z M396.17,184.259l-12.141,63.403l-17.125-17.126
		c-1.657-1.656-2.729-3.395-3.211-5.213c-0.484-1.818-0.519-3.717-0.103-5.697l11.118-54.344c0.46-2.025,0.472-3.786,0.035-5.282
		c-0.438-1.495-1.6-3.188-3.487-5.075l-8.148-8.148l-39.982,39.981l-18.99-18.989L406.403,65.5l31.295,31.296
		c7.031,7.031,12.32,13.77,15.866,20.217c3.545,6.445,5.625,12.554,6.24,18.324c0.613,5.771-0.135,11.213-2.244,16.332
		c-2.111,5.117-5.33,9.84-9.657,14.166c-3.453,3.453-7.225,6.195-11.314,8.229c-4.09,2.033-8.358,3.334-12.807,3.903
		c-4.45,0.569-9.043,0.372-13.781-0.591c-4.74-0.964-9.484-2.718-14.233-5.258C396.802,175.915,396.936,179.963,396.17,184.259z
		 M490.089,326.327c-9.169,0.172-18.233-1.623-27.192-5.384c-8.958-3.759-17.293-9.497-25.006-17.209
		c-7.734-7.733-13.49-16.088-17.266-25.063c-3.778-8.976-5.609-18.076-5.497-27.304s2.123-18.28,6.031-27.162
		c3.908-8.88,9.589-17.046,17.042-24.499c7.508-7.509,15.707-13.223,24.597-17.141c8.889-3.916,17.939-5.923,27.149-6.018
		s18.314,1.732,27.318,5.483c9.001,3.749,17.369,9.491,25.104,17.226c7.712,7.713,13.423,16.074,17.133,25.081
		c3.711,9.009,5.502,18.077,5.371,27.205c-0.13,9.13-2.146,18.147-6.045,27.052c-3.902,8.906-9.607,17.113-17.115,24.621
		c-7.499,7.5-15.686,13.184-24.559,17.053C508.279,324.139,499.258,326.157,490.089,326.327z M575.938,433.983
		c-8.959-3.759-17.293-9.496-25.006-17.209c-7.734-7.733-13.49-16.088-17.267-25.062c-3.777-8.977-5.608-18.077-5.496-27.305
		c0.112-9.227,2.122-18.281,6.031-27.162c3.907-8.879,9.589-17.046,17.042-24.5c7.508-7.508,15.707-13.221,24.598-17.139
		c8.888-3.916,17.938-5.924,27.148-6.018c9.209-0.096,18.314,1.732,27.316,5.482s17.371,9.492,25.104,17.227
		c7.712,7.712,13.423,16.073,17.134,25.08c3.711,9.009,5.501,18.078,5.371,27.205c-0.131,9.13-2.146,18.147-6.047,27.052
		c-3.9,8.906-9.605,17.114-17.113,24.622c-7.5,7.499-15.687,13.184-24.561,17.052c-8.874,3.87-17.895,5.89-27.064,6.06
		C593.961,439.539,584.896,437.744,575.938,433.983z M718.75,486.362l-12.518,83.504l-16.849-16.85
		c-2.256-2.256-3.614-4.257-4.075-6.007c-0.46-1.749-0.461-3.591,0-5.524l8.84-66.705c0.321-2.164,0.148-4.109-0.518-5.836
		c-0.67-1.727-2.084-3.672-4.247-5.834l-6.008-6.008l-44.954,44.953l-18.989-18.99L721.77,380.729l18.99,18.989l-42.676,42.675
		l4.488,4.488c1.796,1.795,3.531,3.029,5.209,3.7c1.676,0.671,3.455,0.895,5.336,0.671l63.714-7.229
		c2.706-0.312,5.001-0.121,6.885,0.574c1.884,0.693,3.815,2.029,5.796,4.01l16.365,16.365l-76.77,7.992
		c-2.436,0.226-4.583,0.279-6.444,0.16c-1.862-0.117-3.666-0.455-5.413-1.009c1.011,2.118,1.629,4.331,1.857,6.638
		C719.334,481.06,719.215,483.595,718.75,486.362z M719.768,583.4l102.268-102.269l18.99,18.99L738.757,602.39L719.768,583.4z
		 M913.462,602.806l-45.438-45.438l-28.312,28.311l35.839,35.84l-14.708,14.708l-35.84-35.839l-29.002,29.002l45.438,45.438
		l-15.123,15.123l-64.427-64.428l102.269-102.268l64.427,64.428L913.462,602.806z"/>
</g>
</svg>
