<?xml version="1.0" encoding="utf-8"?>
<!-- Generator: Adobe Illustrator 16.0.3, SVG Export Plug-In . SVG Version: 6.00 Build 0)  -->
<!DOCTYPE svg PUBLIC "-//W3C//DTD SVG 1.1//EN" "http://www.w3.org/Graphics/SVG/1.1/DTD/svg11.dtd">
<svg version="1.1" id="Layer_1" xmlns="http://www.w3.org/2000/svg" xmlns:xlink="http://www.w3.org/1999/xlink" x="0px" y="0px"
	 width="1000px" height="1000px" viewBox="0 0 1000 1000" enable-background="new 0 0 1000 1000" xml:space="preserve">
<path fill="#CCA812" d="M951.144,1000v-97.549L1000,853.595v97.549L951.144,1000z M0,48.856L48.856,0h97.549L97.549,48.856H0z"/>
<text transform="matrix(0.7071 0.7071 -0.7071 0.7071 13939.916 46225.9062)" fill="#FFFFFF" font-family="'Lato-Regular'" font-size="158.511">POPULAR</text>
<g>
	<path fill="#F1C40F" d="M902.191,597.706l-12.152-12.153l-33.975,33.974l11.877,11.878c3.591,3.591,7.17,6.272,10.738,8.045
		c3.566,1.771,6.996,2.716,10.289,2.831c3.291,0.114,6.443-0.482,9.46-1.795c3.015-1.312,5.812-3.257,8.39-5.836
		c5.202-5.201,7.491-10.898,6.871-17.09C913.066,611.367,909.235,604.749,902.191,597.706z"/>
	<path fill="#F1C40F" d="M791.085,516.706l-46.335,21.477l32.594,32.593l21.545-46.542c0.967-2.071,2.129-4.477,3.486-7.217
		c1.357-2.738,2.912-5.627,4.661-8.666c-3.039,1.75-5.927,3.35-8.666,4.799C795.63,514.601,793.202,515.786,791.085,516.706z"/>
	<path fill="#F1C40F" d="M426.961,0H48.856L1000,951.307V573.202L426.961,0z M334.297,204.931c-1.657-1.658-2.6-3.432-2.825-5.324
		c-0.227-1.893,0.032-3.67,0.777-5.334l13.373-28.702l-42.33-42.33l-28.702,13.373c-1.48,0.742-3.212,1.002-5.196,0.776
		s-3.781-1.145-5.393-2.756l-14.777-14.777L391.68,57.777l19.404,19.404l-62.079,142.457L334.297,204.931z M359.57,230.204
		l102.268-102.269l18.99,18.989l-86.593,86.594l40.949,40.949l-15.675,15.674L359.57,230.204z M492.567,363.2l-59.938-59.938
		l102.268-102.269l18.99,18.989l-86.593,86.594l40.949,40.949L492.567,363.2z M611.361,443.812
		c-5.631,2.484-11.471,3.699-17.52,3.645c-6.051-0.057-12.137-1.438-18.261-4.15c-6.123-2.711-12.028-6.91-17.718-12.6
		c-3.29-3.289-6.209-6.837-8.757-10.637c-2.548-3.801-4.69-7.754-6.425-11.858c-1.736-4.104-3.024-8.247-3.861-12.43
		c-0.838-4.184-1.227-8.286-1.161-12.31l14.62-3.57c1.148-0.137,2.32-0.066,3.518,0.211c1.195,0.277,2.23,0.853,3.105,1.728
		c1.216,1.216,2.031,2.994,2.448,5.335c0.417,2.342,0.978,5.033,1.681,8.072c0.701,3.039,1.844,6.311,3.422,9.814
		c1.578,3.503,4.125,7.01,7.637,10.521c5.419,5.42,10.893,8.325,16.426,8.72c5.531,0.394,10.684-1.796,15.454-6.567
		c2.661-2.66,4.16-5.518,4.499-8.576c0.338-3.057-0.044-6.283-1.146-9.68c-1.105-3.397-2.639-6.926-4.604-10.588
		c-1.966-3.661-3.978-7.408-6.036-11.24s-3.851-7.816-5.377-11.954c-1.525-4.137-2.329-8.374-2.408-12.713
		c-0.082-4.339,0.779-8.768,2.58-13.284c1.801-4.518,5.016-9.09,9.641-13.715c3.746-3.746,8.154-6.646,13.224-8.703
		c5.068-2.055,10.405-3.009,16.009-2.864s11.324,1.472,17.164,3.979c5.838,2.507,11.445,6.45,16.824,11.828
		c6.062,6.062,10.692,12.607,13.895,19.632c3.199,7.026,4.878,14.069,5.035,21.132l-13.616,4.117
		c-1.56,0.533-2.893,0.656-3.999,0.367c-1.109-0.29-2.127-0.9-3.059-1.832c-0.932-0.931-1.646-2.359-2.141-4.285
		c-0.497-1.926-1.114-4.131-1.852-6.612c-0.74-2.482-1.822-5.15-3.246-8.005c-1.426-2.855-3.587-5.732-6.486-8.633
		c-2.617-2.617-5.238-4.592-7.855-5.923c-2.617-1.332-5.156-2.101-7.612-2.308c-2.458-0.204-4.812,0.152-7.063,1.071
		c-2.252,0.917-4.318,2.32-6.203,4.204c-2.389,2.389-3.718,5.035-3.986,7.936c-0.27,2.903,0.092,5.998,1.086,9.288
		c0.992,3.29,2.439,6.81,4.341,10.554c1.901,3.745,3.849,7.577,5.837,11.496c1.99,3.918,3.762,8.004,5.315,12.25
		c1.554,4.247,2.446,8.519,2.679,12.812c0.232,4.296-0.441,8.599-2.017,12.912c-1.579,4.311-4.466,8.567-8.665,12.767
		C622.112,437.778,616.99,441.326,611.361,443.812z M631.02,501.653l86.593-86.594l-30.937-30.936l15.676-15.676l80.724,80.725
		L767.4,464.848l-30.799-30.798l-86.592,86.593L631.02,501.653z M757.594,628.228c-1.656-1.657-2.6-3.432-2.824-5.324
		c-0.227-1.891,0.032-3.67,0.776-5.334l13.373-28.701l-42.33-42.33l-28.702,13.373c-1.48,0.742-3.212,1.002-5.196,0.775
		c-1.984-0.225-3.781-1.145-5.393-2.756l-14.777-14.777l142.457-62.078l19.404,19.404l-62.079,142.457L757.594,628.228z
		 M936.914,638.022c-2.11,5.117-5.329,9.84-9.656,14.167c-3.452,3.452-7.225,6.195-11.312,8.229
		c-4.091,2.034-8.359,3.335-12.809,3.903c-4.449,0.569-9.042,0.373-13.781-0.592c-4.738-0.963-9.482-2.717-14.232-5.256
		c1.033,3.796,1.168,7.844,0.4,12.14l-12.141,63.403l-17.125-17.126c-1.658-1.657-2.729-3.396-3.211-5.213
		c-0.484-1.818-0.52-3.718-0.104-5.697l11.118-54.343c0.46-2.027,0.472-3.787,0.034-5.283s-1.6-3.188-3.486-5.076l-8.148-8.148
		l-39.982,39.982l-18.989-18.99l102.269-102.268l31.295,31.295c7.031,7.031,12.32,13.771,15.865,20.217
		c3.546,6.445,5.627,12.555,6.24,18.325S939.024,632.905,936.914,638.022z"/>
	<path fill="#F1C40F" d="M367.788,93.409l-46.335,21.476l32.593,32.593l21.545-46.541c0.967-2.072,2.129-4.477,3.487-7.217
		c1.357-2.738,2.911-5.627,4.661-8.666c-3.039,1.749-5.927,3.35-8.666,4.799C372.332,91.304,369.904,92.487,367.788,93.409z"/>
</g>
</svg>
