<?xml version="1.0" encoding="utf-8"?>
<!-- Generator: Adobe Illustrator 16.0.3, SVG Export Plug-In . SVG Version: 6.00 Build 0)  -->
<!DOCTYPE svg PUBLIC "-//W3C//DTD SVG 1.1//EN" "http://www.w3.org/Graphics/SVG/1.1/DTD/svg11.dtd">
<svg version="1.1" id="Layer_1" xmlns="http://www.w3.org/2000/svg" xmlns:xlink="http://www.w3.org/1999/xlink" x="0px" y="0px"
	 width="1000px" height="1000px" viewBox="0 0 1000 1000" enable-background="new 0 0 1000 1000" xml:space="preserve">
<path fill="#F39C12" d="M951.144,1000v-97.549L1000,853.595v97.549L951.144,1000z M0,48.856L48.856,0h97.549L97.549,48.856H0z"/>
<text transform="matrix(0.7071 0.7071 -0.7071 0.7071 13939.916 46225.9062)" fill="#FFFFFF" font-family="'Lato-Regular'" font-size="158.511">POPULAR</text>
<g>
	<path fill="#2ECC71" d="M631.793,366.849c3.016-1.312,5.812-3.256,8.391-5.834c5.201-5.202,7.49-10.898,6.87-17.092
		c-0.622-6.191-4.454-12.809-11.497-19.852l-12.153-12.154l-33.974,33.975l11.877,11.877c3.59,3.591,7.17,6.272,10.736,8.045
		c3.568,1.771,6.998,2.717,10.289,2.831S628.775,368.161,631.793,366.849z"/>
	<path fill="#2ECC71" d="M533.185,285.021c3.336,0.07,6.594-0.633,9.771-2.105c3.176-1.473,6.215-3.66,9.115-6.561
		c2.717-2.716,4.754-5.604,6.111-8.666c1.357-3.062,1.967-6.227,1.83-9.494c-0.139-3.269-1.082-6.607-2.831-10.014
		c-1.75-3.406-4.374-6.859-7.872-10.357l-14.294-14.295l-36.736,36.736l14.294,14.295c3.498,3.498,6.974,6.1,10.428,7.803
		C526.451,284.066,529.847,284.952,533.185,285.021z"/>
	<path fill="#2ECC71" d="M738.93,428.134c-5.018-5.018-10.349-8.689-15.988-11.012c-5.642-2.322-11.422-3.334-17.34-3.031
		c-5.92,0.303-11.873,1.93-17.861,4.879c-5.989,2.951-11.794,7.238-17.415,12.859c-5.622,5.622-9.897,11.416-12.825,17.381
		c-2.927,5.967-4.53,11.896-4.81,17.793c-0.28,5.896,0.754,11.676,3.101,17.338c2.346,5.666,6.006,10.982,10.978,15.955
		c5.017,5.017,10.347,8.688,15.988,11.012c5.64,2.322,11.396,3.334,17.27,3.031c5.873-0.303,11.769-1.941,17.688-4.914
		c5.919-2.973,11.69-7.271,17.312-12.894c5.621-5.621,9.93-11.403,12.928-17.347c2.995-5.941,4.656-11.861,4.982-17.758
		c0.324-5.896-0.674-11.664-2.996-17.305C747.617,438.481,743.947,433.151,738.93,428.134z"/>
	<path fill="#2ECC71" d="M426.961,0H48.856L1000,951.307V573.202L426.961,0z M483.57,274.974l-36.115,36.115l-18.99-18.99
		l102.268-102.268l33.284,33.283c6.812,6.812,11.922,13.535,15.33,20.164c3.404,6.629,5.293,13.006,5.662,19.128
		c0.367,6.123-0.68,11.957-3.143,17.505c-2.463,5.547-6.066,10.692-10.807,15.434c-4.953,4.952-10.298,8.662-16.035,11.132
		c-5.737,2.468-11.742,3.524-18.012,3.166c-6.272-0.356-12.709-2.186-19.308-5.483c-6.6-3.299-13.213-8.262-19.842-14.892
		L483.57,274.974z M608.889,396.978l-12.141,63.403l-17.125-17.125c-1.658-1.657-2.729-3.396-3.212-5.214
		c-0.484-1.818-0.519-3.717-0.104-5.697l11.118-54.344c0.46-2.025,0.473-3.786,0.035-5.282c-0.438-1.495-1.6-3.188-3.487-5.075
		l-8.147-8.148l-39.982,39.982l-18.99-18.99L619.122,278.22l31.296,31.295c7.031,7.031,12.32,13.771,15.865,20.217
		c3.545,6.445,5.626,12.555,6.24,18.324c0.613,5.771-0.135,11.213-2.244,16.332c-2.111,5.117-5.33,9.84-9.656,14.166
		c-3.453,3.453-7.225,6.195-11.314,8.229s-8.358,3.334-12.807,3.904c-4.45,0.568-9.043,0.371-13.781-0.592
		c-4.739-0.963-9.483-2.717-14.232-5.257C609.521,388.634,609.654,392.682,608.889,396.978z M771.547,491.313
		c-3.902,8.906-9.606,17.113-17.115,24.622c-7.498,7.499-15.686,13.183-24.559,17.052c-8.875,3.871-17.896,5.889-27.064,6.06
		c-9.17,0.171-18.234-1.624-27.192-5.384c-8.959-3.76-17.294-9.497-25.006-17.209c-7.734-7.734-13.491-16.089-17.267-25.064
		c-3.777-8.976-5.609-18.076-5.496-27.304c0.112-9.228,2.122-18.28,6.031-27.161c3.908-8.88,9.588-17.047,17.042-24.5
		c7.509-7.509,15.708-13.222,24.597-17.14c8.889-3.917,17.939-5.923,27.148-6.019c9.211-0.095,18.314,1.732,27.318,5.483
		c9.001,3.749,17.369,9.491,25.104,17.226c7.713,7.713,13.423,16.074,17.134,25.082c3.71,9.008,5.501,18.076,5.371,27.205
		C777.462,473.392,775.447,482.409,771.547,491.313z"/>
</g>
</svg>
